<svg xmlns="http://www.w3.org/2000/svg" width="512" height="512" viewBox="0 0 512 512">
  <rect width="512" height="512" rx="104" fill="#0f172a"/>
  <rect x="72" y="72" width="368" height="368" rx="72" fill="#ffffff"/>
  <rect x="104" y="112" width="304" height="54" rx="20" fill="#2563eb"/>
  <g fill="#0f172a">
    <rect x="112" y="214" width="18" height="156" rx="5"/><rect x="142" y="214" width="10" height="156" rx="4"/>
    <rect x="166" y="214" width="24" height="156" rx="5"/><rect x="204" y="214" width="12" height="156" rx="4"/>
    <rect x="230" y="214" width="30" height="156" rx="5"/><rect x="276" y="214" width="10" height="156" rx="4"/>
    <rect x="300" y="214" width="20" height="156" rx="5"/><rect x="334" y="214" width="12" height="156" rx="4"/>
    <rect x="360" y="214" width="36" height="156" rx="5"/>
  </g>
  <text x="256" y="198" text-anchor="middle" font-family="Arial, sans-serif" font-size="38" font-weight="800" fill="#0f172a">SAYIM</text>
</svg>
